<svg width="18" height="17" viewBox="0 0 18 17" fill="none" xmlns="http://www.w3.org/2000/svg">
<path fill-rule="evenodd" clip-rule="evenodd" d="M12.4211 0.791016H5.21112C2.70112 0.791016 1.12695 2.56935 1.12695 5.08602V11.8743C1.12695 14.391 2.69445 16.1694 5.21112 16.1694H12.417C14.9378 16.1694 16.5045 14.391 16.5045 11.8743V5.08602C16.5078 2.56935 14.9403 0.791016 12.4211 0.791016Z" stroke="#D3CAFA" stroke-width="1.5" stroke-linecap="round" stroke-linejoin="round"/>
<path fill-rule="evenodd" clip-rule="evenodd" d="M7.7544 5.81958C7.7544 6.66958 7.06607 7.35792 6.21607 7.35792C5.3669 7.35792 4.67773 6.66958 4.67773 5.81958C4.67773 4.96958 5.3669 4.28125 6.21607 4.28125C7.06523 4.28208 7.75357 4.97042 7.7544 5.81958Z" stroke="#D3CAFA" stroke-width="1.5" stroke-linecap="round" stroke-linejoin="round"/>
<path d="M16.5084 10.9592C15.7393 10.1675 14.2601 8.56836 12.6518 8.56836C11.0426 8.56836 10.1151 12.0959 8.5676 12.0959C7.0201 12.0959 5.61427 10.5009 4.37427 11.5234C3.13427 12.545 1.96094 14.6342 1.96094 14.6342" stroke="#D3CAFA" stroke-width="1.5" stroke-linecap="round" stroke-linejoin="round"/>
</svg>
