<svg width="53" height="52" viewBox="0 0 53 52" fill="none" xmlns="http://www.w3.org/2000/svg">
<rect x="0.5" width="52" height="52" rx="26" fill="url(#paint0_linear_1021_4514)" fill-opacity="0.1"/>
<path d="M27.5967 38H25.6142V36.2314C23.4022 36.1025 21.6634 35.5268 20.3981 34.5043C19.1421 33.4727 18.5094 32.1094 18.5 30.4145H22.5211C22.568 31.133 22.8726 31.7363 23.435 32.2245C23.9974 32.7127 24.7238 33.0029 25.6142 33.095V27.7064L24.1239 27.361C22.4274 26.9741 21.1339 26.3109 20.2434 25.3713C19.3623 24.4226 18.9218 23.2297 18.9218 21.7927C18.9218 20.0979 19.5076 18.7346 20.6793 17.7029C21.8603 16.6621 23.5053 16.0587 25.6142 15.8929V14H27.5967V15.9067C29.565 16.0818 31.135 16.6943 32.3067 17.7444C33.4877 18.7853 34.0923 20.1025 34.1204 21.696H30.2118C30.193 21.042 29.94 20.4709 29.4525 19.9827C28.9651 19.4945 28.3465 19.1998 27.5967 19.0984V24.2522L29.1011 24.5423C32.7004 25.3161 34.5 27.186 34.5 30.152C34.5 31.9021 33.9001 33.3069 32.7004 34.3661C31.51 35.4162 29.8087 36.0334 27.5967 36.2176V38ZM30.5211 30.5941C30.5211 29.9217 30.2821 29.3782 29.804 28.9637C29.326 28.5492 28.5902 28.2453 27.5967 28.0518V33.1088C28.5152 33.0535 29.2323 32.8048 29.7478 32.3627C30.2633 31.9206 30.5211 31.331 30.5211 30.5941ZM22.9851 21.4473C22.9851 22.6816 23.8615 23.483 25.6142 23.8515V19.0846C24.8456 19.1307 24.2129 19.3748 23.7162 19.8169C23.2288 20.2499 22.9851 20.7933 22.9851 21.4473Z" fill="url(#paint1_linear_1021_4514)"/>
<defs>
<linearGradient id="paint0_linear_1021_4514" x1="26.5" y1="0" x2="26.5" y2="52" gradientUnits="userSpaceOnUse">
<stop stop-color="#FCFFDF"/>
<stop offset="1" stop-color="#F1FE87"/>
</linearGradient>
<linearGradient id="paint1_linear_1021_4514" x1="26.5" y1="14" x2="26.5" y2="38" gradientUnits="userSpaceOnUse">
<stop stop-color="#FCFFDF"/>
<stop offset="1" stop-color="#F1FE87"/>
</linearGradient>
</defs>
</svg>
