<svg width="14" height="14" viewBox="0 0 14 14" fill="none" xmlns="http://www.w3.org/2000/svg">
<path d="M0.333008 7.04785C0.333008 7.44662 0.666667 7.77213 1.05729 7.77213H6.32259V13.0374C6.32259 13.4281 6.64811 13.7617 7.04687 13.7617C7.44564 13.7617 7.7793 13.4281 7.7793 13.0374V7.77213H13.0364C13.4271 7.77213 13.7608 7.44662 13.7608 7.04785C13.7608 6.64908 13.4271 6.31543 13.0364 6.31543H7.7793V1.05827C7.7793 0.667644 7.44564 0.333984 7.04687 0.333984C6.64811 0.333984 6.32259 0.667644 6.32259 1.05827V6.31543H1.05729C0.666667 6.31543 0.333008 6.64908 0.333008 7.04785Z" fill="url(#paint0_linear_1052_1371)"/>
<defs>
<linearGradient id="paint0_linear_1052_1371" x1="7.04688" y1="0.333984" x2="7.04688" y2="13.7617" gradientUnits="userSpaceOnUse">
<stop stop-color="#FCFFDF"/>
<stop offset="1" stop-color="#F1FE87"/>
</linearGradient>
</defs>
</svg>
