<svg width="53" height="52" viewBox="0 0 53 52" fill="none" xmlns="http://www.w3.org/2000/svg">
<rect x="0.5" width="52" height="52" rx="26" fill="url(#paint0_linear_1021_4469)" fill-opacity="0.1"/>
<path fill-rule="evenodd" clip-rule="evenodd" d="M38.2419 20.1645L37.412 18.7244C36.7099 17.5058 35.154 17.0854 33.9337 17.7846V17.7846C33.3529 18.1268 32.6598 18.2239 32.0073 18.0545C31.3548 17.885 30.7965 17.463 30.4555 16.8815C30.2361 16.5119 30.1182 16.0909 30.1137 15.6611V15.6611C30.1335 14.972 29.8736 14.3042 29.393 13.8099C28.9125 13.3156 28.2524 13.0368 27.563 13.0371H25.891C25.2156 13.0371 24.5681 13.3062 24.0917 13.7849C23.6153 14.2636 23.3492 14.9125 23.3525 15.5878V15.5878C23.3325 16.9822 22.1963 18.1021 20.8018 18.1019C20.372 18.0975 19.9509 17.9796 19.5813 17.7602V17.7602C18.3611 17.061 16.8052 17.4814 16.1031 18.7L15.2121 20.1645C14.5109 21.3815 14.9255 22.9365 16.1397 23.6428V23.6428C16.9289 24.0984 17.415 24.9405 17.415 25.8518C17.415 26.763 16.9289 27.6051 16.1397 28.0608V28.0608C14.9271 28.7623 14.512 30.3134 15.2121 31.5268V31.5268L16.0542 32.9791C16.3832 33.5727 16.9351 34.0107 17.5879 34.1963C18.2407 34.3818 18.9405 34.2995 19.5325 33.9677V33.9677C20.1144 33.6281 20.8079 33.5351 21.4588 33.7093C22.1097 33.8834 22.664 34.3104 22.9986 34.8952C23.2179 35.2649 23.3358 35.6859 23.3403 36.1157V36.1157C23.3403 37.5244 24.4823 38.6664 25.891 38.6664H27.563C28.967 38.6664 30.107 37.5318 30.1137 36.1279V36.1279C30.1105 35.4504 30.3782 34.7997 30.8572 34.3206C31.3363 33.8416 31.987 33.5739 32.6645 33.5772C33.0932 33.5886 33.5125 33.706 33.8849 33.9189V33.9189C35.1019 34.6201 36.6569 34.2055 37.3632 32.9913V32.9913L38.2419 31.5268C38.582 30.943 38.6754 30.2477 38.5013 29.5948C38.3272 28.942 37.9 28.3855 37.3143 28.0486V28.0486C36.7287 27.7116 36.3015 27.1551 36.1274 26.5023C35.9533 25.8494 36.0467 25.1541 36.3868 24.5703C36.608 24.1841 36.9282 23.8639 37.3143 23.6428V23.6428C38.5212 22.9369 38.9349 21.391 38.2419 20.1767V20.1767V20.1645Z" stroke="url(#paint1_linear_1021_4469)" stroke-width="1.7" stroke-linecap="round" stroke-linejoin="round"/>
<circle cx="26.7326" cy="25.8508" r="3.51487" stroke="url(#paint2_linear_1021_4469)" stroke-width="1.7" stroke-linecap="round" stroke-linejoin="round"/>
<defs>
<linearGradient id="paint0_linear_1021_4469" x1="26.5" y1="0" x2="26.5" y2="52" gradientUnits="userSpaceOnUse">
<stop stop-color="#FCFFDF"/>
<stop offset="1" stop-color="#F1FE87"/>
</linearGradient>
<linearGradient id="paint1_linear_1021_4469" x1="26.729" y1="13.0371" x2="26.729" y2="38.6664" gradientUnits="userSpaceOnUse">
<stop stop-color="#FCFFDF"/>
<stop offset="1" stop-color="#F1FE87"/>
</linearGradient>
<linearGradient id="paint2_linear_1021_4469" x1="26.7326" y1="22.3359" x2="26.7326" y2="29.3657" gradientUnits="userSpaceOnUse">
<stop stop-color="#FCFFDF"/>
<stop offset="1" stop-color="#F1FE87"/>
</linearGradient>
</defs>
</svg>
