<svg width="18" height="17" viewBox="0 0 18 17" fill="none" xmlns="http://www.w3.org/2000/svg">
<path fill-rule="evenodd" clip-rule="evenodd" d="M9.75615 1.98019L11.279 5.02248C11.4282 5.32115 11.7163 5.52824 12.0504 5.57617L15.457 6.06653C16.2987 6.18805 16.6337 7.20814 16.0245 7.79263L13.5611 10.1597C13.319 10.3925 13.2088 10.7271 13.2661 11.0557L13.8474 14.3975C13.9906 15.2242 13.1107 15.8549 12.3584 15.4638L9.31362 13.8849C9.01512 13.73 8.65762 13.73 8.35826 13.8849L5.31344 15.4638C4.56113 15.8549 3.68127 15.2242 3.82531 14.3975L4.40581 11.0557C4.46308 10.7271 4.35288 10.3925 4.11079 10.1597L1.64734 7.79263C1.0382 7.20814 1.37314 6.18805 2.21482 6.06653L5.62148 5.57617C5.95555 5.52824 6.2445 5.32115 6.39375 5.02248L7.91572 1.98019C8.29231 1.22796 9.37956 1.22796 9.75615 1.98019Z" stroke="#D3CAFA" stroke-width="1.5" stroke-linecap="round" stroke-linejoin="round"/>
</svg>
