<svg width="23" height="22" viewBox="0 0 23 22" fill="none" xmlns="http://www.w3.org/2000/svg">
<g clip-path="url(#clip0_955_4230)">
<path d="M17.1796 7.5458C14.6239 6.11635 10.5219 3.821 4.15947 0.258498C3.73051 -0.0247955 3.23697 -0.0619206 2.81055 0.0824117L13.7268 10.9986L17.1796 7.5458Z" fill="#32BBFF"/>
<path d="M2.81072 0.0820312C2.73079 0.109102 2.65302 0.141758 2.57864 0.181203C2.10775 0.435923 1.76172 0.926068 1.76172 1.54598V20.4505C1.76172 21.0705 2.1077 21.5606 2.57864 21.8153C2.65289 21.8547 2.73062 21.8875 2.81046 21.9147L13.7269 10.9983L2.81072 0.0820312Z" fill="#32BBFF"/>
<path d="M13.727 10.998L2.81055 21.9145C3.2371 22.0599 3.73064 22.0256 4.15973 21.7382C10.33 18.2831 14.3857 16.0149 16.971 14.5733C17.0429 14.5329 17.1135 14.4933 17.1832 14.4542L13.727 10.998Z" fill="#32BBFF"/>
<path d="M1.76172 11V20.4523C1.76172 21.0722 2.1077 21.5623 2.57864 21.817C2.65289 21.8564 2.73062 21.8892 2.81046 21.9164L13.7269 11H1.76172Z" fill="#2C9FD9"/>
<path d="M4.1601 0.259012C3.6507 -0.0773478 3.05 -0.0677657 2.5791 0.182141L13.5617 11.1648L17.1802 7.54631C14.6246 6.11687 10.5226 3.82152 4.1601 0.259012Z" fill="#29CC5E"/>
<path d="M13.5618 10.834L2.5791 21.8166C3.05004 22.0665 3.6507 22.0809 4.1601 21.7397C10.3303 18.2846 14.3861 16.0165 16.9713 14.5749C17.0433 14.5344 17.1138 14.4949 17.1835 14.4557L13.5618 10.834Z" fill="#D93F21"/>
<path d="M21.7378 10.9994C21.7378 10.4756 21.4735 9.94704 20.9496 9.65391C20.9496 9.65391 19.97 9.1073 16.9672 7.42773L13.3955 10.9994L16.9707 14.5747C19.9405 12.9072 20.9496 12.3449 20.9496 12.3449C21.4735 12.0518 21.7378 11.5232 21.7378 10.9994Z" fill="#FFD500"/>
<path d="M20.9496 12.3455C21.4735 12.0524 21.7378 11.5238 21.7378 11H13.3955L16.9707 14.5752C19.9406 12.9078 20.9496 12.3455 20.9496 12.3455Z" fill="#FFAA00"/>
</g>
<defs>
<clipPath id="clip0_955_4230">
<rect width="22" height="22" fill="white" transform="translate(0.75)"/>
</clipPath>
</defs>
</svg>
