<svg width="18" height="22" viewBox="0 0 18 22" fill="none" xmlns="http://www.w3.org/2000/svg">
<path d="M14.5888 11.6996C14.5994 10.8563 14.8174 10.0296 15.2224 9.29613C15.6275 8.56272 16.2065 7.94651 16.9055 7.50484C16.4614 6.85303 15.8756 6.31663 15.1945 5.93822C14.5134 5.55981 13.7558 5.34982 12.9819 5.32493C11.3311 5.14685 9.73073 6.34017 8.88946 6.34017C8.03202 6.34017 6.73678 5.34261 5.342 5.37214C4.43987 5.40211 3.56068 5.67172 2.79008 6.15469C2.01948 6.63767 1.38376 7.31754 0.944855 8.12807C-0.95645 11.5109 0.461776 16.4825 2.28301 19.2171C3.19415 20.556 4.25909 22.0517 5.65255 21.9986C7.01614 21.9405 7.52549 21.105 9.17136 21.105C10.8021 21.105 11.2799 21.9986 12.7016 21.9649C14.1648 21.9405 15.0868 20.62 15.9659 19.2684C16.6207 18.3142 17.1244 17.2597 17.4587 16.1439C16.6086 15.7744 15.8832 15.156 15.3728 14.3657C14.8625 13.5753 14.5898 12.6481 14.5888 11.6996ZM11.9034 3.52664C12.7013 2.54238 13.0943 1.27728 12.9991 0C11.7803 0.131587 10.6544 0.730268 9.84588 1.67675C9.45053 2.13912 9.14774 2.67703 8.9548 3.25974C8.76187 3.84244 8.68258 4.45851 8.72147 5.07272C9.33113 5.07918 9.93427 4.94338 10.4855 4.67555C11.0367 4.40773 11.5214 4.01496 11.9034 3.52664Z" fill="#F2F2F2"/>
</svg>
