<svg width="101" height="24" viewBox="0 0 101 24" fill="none" xmlns="http://www.w3.org/2000/svg">
<path fill-rule="evenodd" clip-rule="evenodd" d="M12.0189 24C18.6567 24 24.0377 18.6274 24.0377 12C24.0377 5.37258 18.6567 0 12.0189 0C5.38103 0 0 5.37258 0 12C0 18.6274 5.38103 24 12.0189 24ZM5.97788 10.1639C5.43629 9.24644 5.74987 8.07776 6.67828 7.55353L13.4719 3.71754C14.4003 3.19331 15.592 3.51206 16.1336 4.42948C16.6751 5.3469 16.3616 6.51558 15.4332 7.03981L8.63955 10.8758C7.71114 11.4 6.51946 11.0813 5.97788 10.1639ZM6.6199 14.692C6.07831 13.7746 6.39189 12.6059 7.32031 12.0817L14.1139 8.24566C15.0423 7.72144 16.234 8.04018 16.7756 8.9576C17.3172 9.87502 17.0036 11.0437 16.0752 11.5679L9.28157 15.4039C8.35316 15.9282 7.16149 15.6094 6.6199 14.692ZM7.95353 16.6098C7.02511 17.134 6.71153 18.3027 7.25312 19.2201C7.79471 20.1375 8.98638 20.4563 9.91479 19.9321L16.7084 16.0961C17.6368 15.5718 17.9504 14.4031 17.4088 13.4857C16.8672 12.5683 15.6755 12.2496 14.7471 12.7738L7.95353 16.6098Z" fill="url(#paint0_linear_1175_1517)"/>
<path d="M43.4801 11.9023V12.9103H34.6342C34.7304 15.1183 35.7319 16.2223 37.6389 16.2223C38.8568 16.2223 39.6261 15.7903 39.9466 14.9263H43.3599C43.1035 16.2063 42.4865 17.2063 41.509 17.9263C40.5315 18.6463 39.2254 19.0063 37.5909 19.0063C35.6518 19.0063 34.1134 18.4143 32.9756 17.2303C31.8538 16.0463 31.293 14.4623 31.293 12.4783C31.293 10.5103 31.8538 8.95034 32.9756 7.79834C34.0974 6.63034 35.6117 6.04634 37.5187 6.04634C39.3456 6.04634 40.7879 6.59034 41.8455 7.67834C42.9032 8.76634 43.4481 10.1743 43.4801 11.9023ZM40.0427 10.6783C39.8184 9.27034 38.969 8.56634 37.4947 8.56634C36.0204 8.56634 35.107 9.27034 34.7544 10.6783H40.0427Z" fill="#F2F2F2"/>
<path d="M46.381 18.6943L42.8715 6.35834H46.3089L48.8569 15.6943H49.8905L52.3423 6.35834H55.7797L52.2221 18.6943H46.381Z" fill="#F2F2F2"/>
<path d="M67.393 11.9023V12.9103H58.5471C58.6432 15.1183 59.6448 16.2223 61.5518 16.2223C62.7697 16.2223 63.5389 15.7903 63.8594 14.9263H67.2728C67.0164 16.2063 66.3994 17.2063 65.4219 17.9263C64.4443 18.6463 63.1383 19.0063 61.5037 19.0063C59.5647 19.0063 58.0263 18.4143 56.8885 17.2303C55.7667 16.0463 55.2058 14.4623 55.2058 12.4783C55.2058 10.5103 55.7667 8.95034 56.8885 7.79834C58.0102 6.63034 59.5246 6.04634 61.4316 6.04634C63.2585 6.04634 64.7007 6.59034 65.7584 7.67834C66.8161 8.76634 67.3609 10.1743 67.393 11.9023ZM63.9556 10.6783C63.7312 9.27034 62.8819 8.56634 61.4076 8.56634C59.9332 8.56634 59.0198 9.27034 58.6673 10.6783H63.9556Z" fill="#F2F2F2"/>
<path d="M79.957 18.6943H76.5917V11.7103C76.5917 10.8463 76.3834 10.1823 75.9667 9.71834C75.5661 9.25434 74.9732 9.02234 74.1879 9.02234C73.3707 9.02234 72.7056 9.32634 72.1928 9.93434C71.696 10.5423 71.4476 11.2783 71.4476 12.1423V18.6943H68.0824V6.35834H71.3274V7.48634H71.9524C72.7056 6.52634 73.8514 6.04634 75.3898 6.04634C76.9122 6.04634 78.05 6.48634 78.8032 7.36634C79.5724 8.24634 79.957 9.49434 79.957 11.1103V18.6943Z" fill="#F2F2F2"/>
<path d="M85.1435 6.35834H87.8598V9.16634H85.1435V14.4703C85.1435 15.3823 85.6723 15.8383 86.73 15.8383H87.8598V18.6943H86.6819C85.1275 18.6943 83.9176 18.4143 83.0522 17.8543C82.2029 17.2783 81.7782 16.2863 81.7782 14.8783V9.16634H79.9754V6.35834H81.7782V2.90234H85.1435V6.35834Z" fill="#F2F2F2"/>
<path d="M93.395 23.4943H90.0297L92.6499 17.4223L87.4096 6.35834H90.9191L93.996 12.9343H94.621L97.4574 6.35834H100.847L93.395 23.4943Z" fill="#F2F2F2"/>
<defs>
<linearGradient id="paint0_linear_1175_1517" x1="12.0189" y1="0" x2="12.0189" y2="24" gradientUnits="userSpaceOnUse">
<stop stop-color="#FCFFDF"/>
<stop offset="1" stop-color="#F1FE87"/>
</linearGradient>
</defs>
</svg>
